<svg width="20" height="20" viewBox="0 0 20 20" fill="none" xmlns="http://www.w3.org/2000/svg">
<path d="M6.9934 18.7821V15.7152C6.99339 14.9381 7.6586 14.3067 8.48256 14.3018H11.508C12.3357 14.3018 13.0066 14.9346 13.0066 15.7152V18.7732C13.0066 19.4472 13.5832 19.9951 14.2978 20H16.3619C17.3259 20.0023 18.2513 19.6428 18.9339 19.0007C19.6164 18.3586 20 17.4867 20 16.5775V7.86583C20 7.13138 19.6548 6.4347 19.0575 5.96349L12.0452 0.674267C10.8195 -0.250877 9.06881 -0.220991 7.87936 0.745383L1.01791 5.96349C0.392359 6.42081 0.0184761 7.11955 0 7.86583V16.5686C0 18.4637 1.62882 20 3.63808 20H5.65504C5.99913 20.0023 6.32999 19.875 6.57418 19.6464C6.81838 19.4177 6.95571 19.1066 6.9557 18.7821H6.9934Z" fill="black"/>
</svg>
